<?xml version="1.0" encoding="utf-8"?>
<!DOCTYPE svg PUBLIC "-//W3C//DTD SVG 20010904//EN" "http://www.w3.org/TR/2001/REC-SVG-20010904/DTD/svg10.dtd">
<svg version="1.0" xmlns="http://www.w3.org/2000/svg" width="128pt" height="128pt" viewBox="0 0 128 128" style="" preserveAspectRatio="xMidYMid meet">
<g fill="#C066F1FF" stroke="#C066F1FF">
<path d="M 9.452 6.266 C 9.184 6.962 9.086 19.449 9.233 34.016 L 9.500 60.500 31.250 60.770 L 53.000 61.039 53.000 58.020 C 53.000 56.359 53.450 55.000 54.000 55.000 C 54.640 55.000 55.000 46.000 55.000 30.000 L 55.000 5.000 32.469 5.000 C 15.217 5.000 9.823 5.297 9.452 6.266 M 53.000 30.000 L 53.000 53.000 37.000 53.000 L 21.000 53.000 21.000 35.000 C 21.000 23.667 20.630 17.000 20.000 17.000 C 19.370 17.000 19.000 23.667 19.000 35.000 L 19.000 53.000 15.000 53.000 L 11.000 53.000 11.000 30.667 C 11.000 18.383 11.300 8.033 11.667 7.667 C 12.033 7.300 21.483 7.000 32.667 7.000 L 53.000 7.000 53.000 30.000 M 51.000 57.000 C 51.000 58.931 50.333 59.000 31.559 59.000 C 19.677 59.000 11.878 58.611 11.500 58.000 C 9.920 55.444 12.886 55.000 31.559 55.000 C 50.333 55.000 51.000 55.069 51.000 57.000 "/></g>
<g fill="#F1B0B9FF" stroke="#F1B0B9FF">
<path d="M 11.667 7.667 C 11.300 8.033 11.000 18.383 11.000 30.667 L 11.000 53.000 15.000 53.000 L 19.000 53.000 19.088 35.250 C 19.137 25.488 19.251 15.138 19.342 12.250 L 19.506 7.000 15.920 7.000 C 13.947 7.000 12.033 7.300 11.667 7.667 M 17.000 50.000 C 17.000 50.550 16.100 51.000 15.000 51.000 C 13.900 51.000 13.000 50.550 13.000 50.000 C 13.000 49.450 13.900 49.000 15.000 49.000 C 16.100 49.000 17.000 49.450 17.000 50.000 M 17.000 45.000 C 17.000 45.550 16.100 46.000 15.000 46.000 C 13.900 46.000 13.000 45.550 13.000 45.000 C 13.000 44.450 13.900 44.000 15.000 44.000 C 16.100 44.000 17.000 44.450 17.000 45.000 M 17.000 40.000 C 17.000 40.550 16.100 41.000 15.000 41.000 C 13.900 41.000 13.000 40.550 13.000 40.000 C 13.000 39.450 13.900 39.000 15.000 39.000 C 16.100 39.000 17.000 39.450 17.000 40.000 M 17.000 35.000 C 17.000 35.550 16.100 36.000 15.000 36.000 C 13.900 36.000 13.000 35.550 13.000 35.000 C 13.000 34.450 13.900 34.000 15.000 34.000 C 16.100 34.000 17.000 34.450 17.000 35.000 M 17.000 30.000 C 17.000 30.550 16.100 31.000 15.000 31.000 C 13.900 31.000 13.000 30.550 13.000 30.000 C 13.000 29.450 13.900 29.000 15.000 29.000 C 16.100 29.000 17.000 29.450 17.000 30.000 M 17.000 25.000 C 17.000 25.550 16.100 26.000 15.000 26.000 C 13.900 26.000 13.000 25.550 13.000 25.000 C 13.000 24.450 13.900 24.000 15.000 24.000 C 16.100 24.000 17.000 24.450 17.000 25.000 M 17.000 20.000 C 17.000 20.550 16.100 21.000 15.000 21.000 C 13.900 21.000 13.000 20.550 13.000 20.000 C 13.000 19.450 13.900 19.000 15.000 19.000 C 16.100 19.000 17.000 19.450 17.000 20.000 M 17.000 15.000 C 17.000 15.550 16.100 16.000 15.000 16.000 C 13.900 16.000 13.000 15.550 13.000 15.000 C 13.000 14.450 13.900 14.000 15.000 14.000 C 16.100 14.000 17.000 14.450 17.000 15.000 M 17.000 10.000 C 17.000 10.550 16.100 11.000 15.000 11.000 C 13.900 11.000 13.000 10.550 13.000 10.000 C 13.000 9.450 13.900 9.000 15.000 9.000 C 16.100 9.000 17.000 9.450 17.000 10.000 "/></g>
<g fill="#F1B0B9FF" stroke="#F1B0B9FF">
<path d="M 11.500 56.000 C 9.920 58.556 12.886 59.000 31.559 59.000 C 50.333 59.000 51.000 58.931 51.000 57.000 C 51.000 55.069 50.333 55.000 31.559 55.000 C 19.677 55.000 11.878 55.389 11.500 56.000 "/></g>
<g fill="#957EA5FF" stroke="#957EA5FF">
<path d="M 38.507 37.992 C 35.858 40.758 35.507 40.864 33.883 39.394 C 32.035 37.721 30.000 38.240 30.000 40.385 C 30.000 41.846 34.152 46.000 35.612 46.000 C 37.587 46.000 44.278 38.167 43.665 36.571 C 42.801 34.317 41.751 34.607 38.507 37.992 M 43.000 36.797 C 43.000 37.235 41.286 39.268 39.190 41.314 L 35.381 45.034 33.020 42.521 C 30.341 39.669 31.018 37.802 33.814 40.332 C 35.529 41.884 35.815 41.803 38.507 38.992 C 41.329 36.047 43.000 35.231 43.000 36.797 M 39.500 39.410 L 41.500 37.253 39.500 39.410 L 37.500 41.567 39.500 39.410 "/></g>
<g fill="#92ABAEFF" stroke="#92ABAEFF">
<path d="M 38.590 38.907 C 37.058 40.505 35.849 42.080 35.902 42.407 C 35.956 42.733 35.663 42.955 35.250 42.900 C 34.838 42.845 34.598 42.438 34.718 41.996 C 35.027 40.855 32.084 38.583 31.305 39.361 C 30.950 39.717 31.721 41.139 33.020 42.521 L 35.381 45.034 39.190 41.314 C 41.286 39.268 43.000 37.235 43.000 36.797 C 43.000 35.243 41.338 36.038 38.590 38.907 "/></g>
<g fill="#C066F1FF" stroke="#C066F1FF">
<path d="M 31.000 30.000 C 31.000 30.556 33.667 31.000 37.000 31.000 C 40.333 31.000 43.000 30.556 43.000 30.000 C 43.000 29.444 40.333 29.000 37.000 29.000 C 33.667 29.000 31.000 29.444 31.000 30.000 "/></g>
<g fill="#C066F1FF" stroke="#C066F1FF">
<path d="M 27.000 26.000 C 27.000 26.556 29.667 27.000 33.000 27.000 C 36.333 27.000 39.000 26.556 39.000 26.000 C 39.000 25.444 36.333 25.000 33.000 25.000 C 29.667 25.000 27.000 25.444 27.000 26.000 "/></g>
<g fill="#C066F1FF" stroke="#C066F1FF">
<path d="M 41.000 26.000 C 41.000 26.550 42.350 27.000 44.000 27.000 C 45.650 27.000 47.000 26.550 47.000 26.000 C 47.000 25.450 45.650 25.000 44.000 25.000 C 42.350 25.000 41.000 25.450 41.000 26.000 "/></g>
<g fill="#C066F1FF" stroke="#C066F1FF">
<path d="M 19.000 12.000 C 19.000 13.650 19.450 15.000 20.000 15.000 C 20.550 15.000 21.000 13.650 21.000 12.000 C 21.000 10.350 20.550 9.000 20.000 9.000 C 19.450 9.000 19.000 10.350 19.000 12.000 "/></g>
<g fill="#75C1AEFF" stroke="#75C1AEFF">
<path d="M 38.783 39.845 C 36.645 41.847 35.631 42.188 34.028 41.445 C 32.052 40.528 32.047 40.553 33.841 42.265 C 35.618 43.960 35.807 43.897 38.596 40.665 C 41.356 37.466 41.365 37.426 38.783 39.845 "/></g>
<g fill="#C066F1FF" stroke="#C066F1FF">
<path d="M 13.000 50.000 C 13.000 50.550 13.900 51.000 15.000 51.000 C 16.100 51.000 17.000 50.550 17.000 50.000 C 17.000 49.450 16.100 49.000 15.000 49.000 C 13.900 49.000 13.000 49.450 13.000 50.000 "/></g>
<g fill="#C066F1FF" stroke="#C066F1FF">
<path d="M 13.000 45.000 C 13.000 45.550 13.900 46.000 15.000 46.000 C 16.100 46.000 17.000 45.550 17.000 45.000 C 17.000 44.450 16.100 44.000 15.000 44.000 C 13.900 44.000 13.000 44.450 13.000 45.000 "/></g>
<g fill="#C066F1FF" stroke="#C066F1FF">
<path d="M 13.000 40.000 C 13.000 40.550 13.900 41.000 15.000 41.000 C 16.100 41.000 17.000 40.550 17.000 40.000 C 17.000 39.450 16.100 39.000 15.000 39.000 C 13.900 39.000 13.000 39.450 13.000 40.000 "/></g>
<g fill="#C066F1FF" stroke="#C066F1FF">
<path d="M 13.000 35.000 C 13.000 35.550 13.900 36.000 15.000 36.000 C 16.100 36.000 17.000 35.550 17.000 35.000 C 17.000 34.450 16.100 34.000 15.000 34.000 C 13.900 34.000 13.000 34.450 13.000 35.000 "/></g>
<g fill="#C066F1FF" stroke="#C066F1FF">
<path d="M 13.000 30.000 C 13.000 30.550 13.900 31.000 15.000 31.000 C 16.100 31.000 17.000 30.550 17.000 30.000 C 17.000 29.450 16.100 29.000 15.000 29.000 C 13.900 29.000 13.000 29.450 13.000 30.000 "/></g>
<g fill="#C066F1FF" stroke="#C066F1FF">
<path d="M 13.000 25.000 C 13.000 25.550 13.900 26.000 15.000 26.000 C 16.100 26.000 17.000 25.550 17.000 25.000 C 17.000 24.450 16.100 24.000 15.000 24.000 C 13.900 24.000 13.000 24.450 13.000 25.000 "/></g>
<g fill="#C066F1FF" stroke="#C066F1FF">
<path d="M 13.000 20.000 C 13.000 20.550 13.900 21.000 15.000 21.000 C 16.100 21.000 17.000 20.550 17.000 20.000 C 17.000 19.450 16.100 19.000 15.000 19.000 C 13.900 19.000 13.000 19.450 13.000 20.000 "/></g>
<g fill="#C066F1FF" stroke="#C066F1FF">
<path d="M 13.000 15.000 C 13.000 15.550 13.900 16.000 15.000 16.000 C 16.100 16.000 17.000 15.550 17.000 15.000 C 17.000 14.450 16.100 14.000 15.000 14.000 C 13.900 14.000 13.000 14.450 13.000 15.000 "/></g>
<g fill="#C066F1FF" stroke="#C066F1FF">
<path d="M 13.000 10.000 C 13.000 10.550 13.900 11.000 15.000 11.000 C 16.100 11.000 17.000 10.550 17.000 10.000 C 17.000 9.450 16.100 9.000 15.000 9.000 C 13.900 9.000 13.000 9.450 13.000 10.000 "/></g>
</svg>
