<svg xmlns="http://www.w3.org/2000/svg" viewBox="0 0 500 500"><path fill="#d6d6e9" d="M450.43 132.03c-.52-3.93-3.36-7.68-8.4-7.87-70.57-2.79-141.14-5.57-211.72-8.36-20.21-.8-40.42-1.6-60.63-2.39-6.38-.25-8.81 5.42-7.57 10.28-.03.36-.05.73-.04 1.11 1.54 68.29 3.08 136.58 4.63 204.88-.06.05-.13.09-.19.14-3.41 2.92-3.76 7.14-1.8 11.04.78 1.56 1.56 3.11 2.35 4.67.44 19.27.87 38.53 1.31 57.8l.03 1.51c-.06.62-.05 1.26.04 1.89l.45 19.78c-2.86 2.66-4.24 6.91-1.56 10.62.6.83 1.23 1.63 1.85 2.44l.96 42.62c.08 3.36 1.73 5.62 3.98 6.84 1.18 2.94 3.78 5.34 7.75 5.55 80.65 4.16 161.29 8.33 241.94 12.49 4.49.23 7.01-2.5 7.69-5.84 4.45.12 9.08-2.76 8.99-8.5-1.43-92.05 9.03-183.66 12.87-275.52 1.09-26.05 1.62-52.13 1.23-78.2-.05-3.48-1.8-5.78-4.16-6.97zm-102.82 14.25c-.34.28-.67.59-.96.91-.15-.34-.31-.67-.46-1.01l1.43.09zm-12.08 167.01c6.06 12.73 12.33 25.37 18.99 37.81.82 2.64 1.64 5.28 2.47 7.92-4.9-8.63-9.79-17.27-14.76-25.86-12.62-27.55-25.48-55.01-39.19-82.02-6.67-14.8-13.18-29.67-19.47-44.63 19.44 34.43 35.06 71.27 51.97 106.78zm-65.02-168.87c-2.1 1.22-3.63 3.18-3.82 5.6-1.43-1.86-2.88-3.7-4.34-5.53 2.72-.03 5.44-.05 8.16-.07zm-76.15 1.11c2.58-.03 5.17-.07 7.75-.1-4.68 1.52-8.12 6.77-4.76 12.38.25.41.49.83.74 1.24-1.39.38-2.66 1.1-3.68 2.08-.02-5.2-.03-10.4-.05-15.6zm.49 160.41c0-1.36 0-2.72-.01-4.08.52 1.24 1.04 2.47 1.56 3.7-.53.08-1.05.21-1.55.38zm-.17-54.74c0-2.52-.02-5.04-.02-7.56 1.96 3.96 3.92 7.92 5.87 11.88-.65-.72-1.29-1.44-1.94-2.15a6.913 6.913 0 00-3.91-2.17zm12.25 199.49c.7-.13 1.41-.35 2.11-.69.75-.36 1.48-.88 2.13-1.49.67 1.81 1.35 3.62 2.01 5.44-2.13-1-4.22-2.09-6.26-3.26zm3.35-303.57c-.95-.86-2-1.43-3.09-1.76l3.75-.06c-.31.56-.54 1.17-.66 1.83zM238.7 466.4c2.03-1.57 3.45-4.01 3.51-6.79 2.94 2.53 5.96 4.98 9.06 7.35-4.19-.19-8.38-.38-12.57-.56zm22.48-23.15c.9-.46 1.73-1.08 2.45-1.82.6 1.67 1.24 3.32 1.91 4.95-1.4-.53-2.74-1.23-3.96-2.07l-.4-1.06zm6.45 21c2.51.35 5.08.41 7.68.19-.28.72-.47 1.48-.53 2.25-.04.5-.04.97 0 1.44-2.97-.15-5.93-.32-8.9-.47.81-1.02 1.43-2.18 1.75-3.41zm133.27 12.34c-4.51-.37-9.02-.72-13.53-1.08a9.51 9.51 0 00-1.38-3.38c1.02-.1 1.96-.35 2.82-.73 3.87-.43 6.96-3.33 7.65-6.86 1.49-1.89 2.18-4.39 1.31-7.15.87-.36 1.67-.84 2.37-1.45.38-.14.76-.31 1.13-.5-.18 7.04-.32 14.09-.37 21.14zm1.22-46.27l-1.05-4.11c.41.12.82.21 1.24.26-.06 1.29-.13 2.57-.19 3.85zm8.81-123.06c-.51-1.92-1.03-3.84-1.56-5.76.69 0 1.39-.09 2.08-.28-.17 2.01-.35 4.03-.52 6.04zm24-60.94c.13-10.49.21-20.98.27-31.47.22-3.47.43-6.94.64-10.41.36-.24.7-.49 1.01-.78-.48 14.22-1.14 28.44-1.92 42.65zm2.32-56.01c-.18-.53-.36-1.07-.54-1.6.03-.52.06-1.05.08-1.57.31-6.24.6-12.48.85-18.72-.07 7.3-.21 14.59-.4 21.89z"></path><path fill="#d6d6e9" d="M407.81 87.72c-46.33 2.13-92.66 4.26-138.99 6.4a686.9 686.9 0 00-60.67 2.79l-24.7 1.14c-2-4.18-6.96-6.97-11.98-3.71-2.96 1.93-5.92 3.85-8.88 5.78-6.97 4.54-3.7 16.07 4.85 15.68l17.61-.81c1.28.75 2.9 1.12 4.85.88 6.45-.77 12.91-1.42 19.37-2l59.9-2.76h2.94c1.34 1.03 3.08 1.69 5.21 1.73l50.31 1.08a6.2 6.2 0 001.89.57c18.41 2.3 36.84 4.43 55.29 6.38 4.3.46 8.57-1.23 10.01-5.5 1.5.03 3.01.06 4.51.1 5.82.13 8.73-5.82 7.87-10.69.41-.03.81-.05 1.22-.08 10.9-.68 10.36-17.49-.6-16.99z"></path><g fill="#bd34fe"><path d="M434.24 122c-33.34-4.18-66.83-7.17-100.38-8.95a1410.76 1410.76 0 00-100.76-1.75c-18.83.35-37.66 1.08-56.46 2.18-1.92.11-1.93 3.11 0 3 33.54-1.97 67.15-2.74 100.75-2.3 33.6.44 67.18 2.08 100.66 4.91 18.77 1.59 37.51 3.56 56.2 5.91 1.91.24 1.89-2.76 0-3zM167.64 113.41c-.92 49.83-1.85 99.67-2.76 149.5-.9 49.16-1.67 98.36.16 147.51 1.04 27.8 2.93 55.57 6.07 83.22.22 1.9 3.22 1.92 3 0-5.59-49.09-7.16-98.53-7.19-147.91-.02-49.35 1.25-98.7 2.16-148.04l1.56-84.28c.04-1.93-2.96-1.93-3 0zM438.59 125.91c-.15 48.35-.31 96.69-.46 145.04-.15 48.1-.31 96.2-.46 144.3-.09 27.13-.17 54.27-.26 81.4 0 1.93 2.99 1.93 3 0 .15-48.35.31-96.69.46-145.04s.31-96.2.46-144.3c.09-27.13.17-54.27.26-81.4 0-1.93-2.99-1.93-3 0z"></path><path d="M428.98 492.85c-34.76 4.7-69.65-1.83-104.09-6.13-17.6-2.2-35.2-3.58-52.94-3.46-18.06.13-36.11 1.28-54.14 2.23-20.14 1.06-40.29 2.12-60.43 3.19-1.92.1-1.93 3.1 0 3 18.08-.95 36.15-1.91 54.23-2.86s36.06-2.12 54.11-2.48 35.67.6 53.44 2.68c17.38 2.03 34.68 4.76 52.09 6.57 17.32 1.8 34.82 2.67 52.18.91 2.12-.21 4.24-.47 6.36-.76 1.9-.26 1.09-3.15-.8-2.89zM165.92 109.23c.1-.05.44-.08.45-.09.01-.01-.07-.16-.06-.17.19-.19.36-.38.63-.51.79-.36 1.77-.42 2.62-.55l7.08-1.05c4.73-.7 9.45-1.4 14.18-2.09 9.38-1.37 18.77-2.72 28.16-4 18.9-2.58 37.83-4.91 56.82-6.71 18.9-1.79 37.85-3.06 56.83-3.52s37.92-.1 56.82 1.35c4.29.33 8.79.41 13.01 1.31 3.08.66 5.61 2.24 6.07 5.55.74 5.35-2.6 10.95-.59 16.19a7.295 7.295 0 002.3 3.15c1.5 1.18 3.64-.93 2.12-2.12-2.2-1.72-2.16-4.38-1.86-6.94.35-3 1.15-5.97 1.11-9.01-.05-3.24-1.26-6.25-4.06-8.06-3.24-2.1-7.5-2.16-11.22-2.49-20.03-1.82-40.15-2.38-60.25-2-20.05.38-40.07 1.68-60.03 3.57-20.08 1.9-40.09 4.39-60.07 7.15-9.96 1.37-19.92 2.81-29.87 4.28-4.97.73-9.94 1.47-14.91 2.21-2.76.41-9.47.96-7.62 5.53.66 1.64 2.24 2.34 3.85 1.62 1.76-.79.23-3.37-1.51-2.59z"></path><path d="M399.84 104.76c-29.02-1.48-58.08-2.04-87.13-1.69-29.05.36-58.09 1.63-87.06 3.83-16.3 1.23-32.57 2.76-48.81 4.57-1.9.21-1.92 3.21 0 3a1379.018 1379.018 0 01174-8.34c16.34.25 32.68.8 49 1.63 1.93.1 1.92-2.9 0-3z"></path><path d="M167.18 106.54c32.25-3.55 64.73-4.06 97.15-4.08 32.27-.02 64.57.43 96.82-1.18 18-.9 35.98-2.48 53.82-5.09 1.9-.28 1.09-3.17-.8-2.89-31.93 4.68-64.25 5.87-96.48 6.14-32.13.27-64.28-.38-96.41.56-18.07.53-36.13 1.57-54.1 3.55-1.9.21-1.92 3.21 0 3zM162.73 150.15c-3.19-5.84-11.18-5.94-16.05-2.31-5.38 4.01-8.09 10.92-8.83 17.41s.7 13.59 4.08 19.36c3.35 5.71 8.6 9.98 14.72 12.44 6.88 2.76 14.79 3.04 21.78.54 1.8-.65 1.03-3.55-.8-2.89-10.87 3.9-23.94.47-31.15-8.68-7.1-9.02-8.08-23.21-1.13-32.61 1.81-2.45 4.44-4.65 7.55-5.02 2.81-.33 5.83.73 7.23 3.29.93 1.69 3.52.18 2.59-1.51z"></path><path d="M172.02 180.01c-12.02-3.06-24 5.26-28.47 16.2-4.81 11.76.97 24.41 10.77 31.54 5.6 4.07 12.5 6.38 19.44 6.27 1.93-.03 1.93-3.03 0-3-10.86.16-21.65-6.19-26.55-15.94-2.43-4.84-3.13-10.42-1.62-15.64s4.71-9.58 8.91-12.7c4.79-3.57 10.84-5.33 16.72-3.83 1.87.48 2.67-2.42.8-2.89z"></path><path d="M173.45 217.33c-9.13-4.7-19.59 1.05-24.36 9.26-5.57 9.57-2.08 20.88 4.89 28.7 4.12 4.62 9.39 8.21 15.06 10.65 1.75.75 3.28-1.83 1.51-2.59-8.78-3.77-17.23-10.63-20.24-20.01-1.36-4.25-1.51-8.77.21-12.94s4.67-7.42 8.36-9.59c3.99-2.35 8.83-3.06 13.05-.89 1.71.88 3.23-1.71 1.51-2.59z"></path><path d="M170.64 248.11c-9.29.54-20.56 2.99-24.85 12.34-4.59 9.99.62 21.24 8.16 28.15 4.67 4.29 10.2 7.49 15.68 10.62 1.68.96 3.19-1.63 1.51-2.59-8.47-4.85-17.89-10.18-22.08-19.48-1.87-4.15-2.61-9.04-1.3-13.46s4.46-7.4 8.37-9.34c4.47-2.22 9.59-2.95 14.52-3.24 1.92-.11 1.93-3.11 0-3z"></path><path d="M166.07 283.19c-9.61 1.97-17.42 10.04-19.73 19.49s1.81 19.66 9.67 25.67c4.38 3.34 9.74 5.3 15.27 5.3 1.93 0 1.93-3 0-3-8.76 0-16.87-5.61-20.63-13.42s-1.87-17.28 3.8-23.76c3.27-3.73 7.55-6.38 12.42-7.38 1.89-.39 1.09-3.28-.8-2.89z"></path><path d="M170.03 320.16c-8.39-4.48-18.15.67-22.72 8.19-5.29 8.69-2.34 19.13 3.87 26.48 3.75 4.44 8.66 7.91 13.96 10.27 1.75.78 3.28-1.8 1.51-2.59-8.02-3.58-15.67-10-18.29-18.67-1.19-3.94-1.25-8.15.46-11.95a18.78 18.78 0 017.78-8.54c3.68-2.08 8.09-2.63 11.91-.59 1.7.91 3.22-1.68 1.51-2.59z"></path><path d="M168.29 351.52c-7.23-6.44-19.07-3.61-24.28 4.02-6.58 9.63-2.88 22.55 4.24 30.71 4.26 4.89 9.74 8.6 15.38 11.72 1.69.93 3.21-1.66 1.51-2.59-8.67-4.78-17.51-11.39-20.49-21.3-2.59-8.6-.15-19.17 9.15-22.32 4.15-1.4 8.99-1.12 12.37 1.89 1.44 1.28 3.57-.83 2.12-2.12z"></path><path d="M164.66 379.88c-9.81.51-16.23 10.73-15.68 19.94.67 11.43 9.59 20.62 18.17 27.22 5.31 4.08 11.32 7.43 17.98 8.62 1.89.34 2.7-2.55.8-2.89-5.37-.96-10.24-3.35-14.7-6.44-4.26-2.95-8.25-6.46-11.65-10.37-6.1-7.02-10.24-16.79-5.45-25.64 2.15-3.97 5.88-7.19 10.55-7.44 1.92-.1 1.93-3.1 0-3z"></path><path d="M172.67 414.97c-9.54-3.44-19.45 3.51-23.16 12.16-4.13 9.64.2 20.17 7.68 26.8 4.34 3.85 9.6 6.59 15.22 8.03 1.87.48 2.67-2.41.8-2.89-8.63-2.2-16.88-7.87-20.6-16.17-1.76-3.93-2.31-8.35-1.1-12.51s3.8-7.75 7.21-10.22c3.85-2.79 8.59-3.95 13.15-2.3 1.82.66 2.6-2.24.8-2.89zM439.3 494.38c-6.7-.37-13.31-1.51-19.76-3.39-1.86-.54-2.65 2.35-.8 2.89a91.226 91.226 0 0020.55 3.5c1.93.11 1.92-2.9 0-3z"></path></g><g fill="#bd34fe"><path d="M216.48 251.22c-2.24 18.45-4.2 36.92-5.86 55.43-.48 5.29-.93 10.58-1.36 15.87-.16 1.92 2.84 1.91 3 0a1807.07 1807.07 0 017.22-71.3c.23-1.91-2.77-1.9-3 0z"></path><path d="M213.39 249.85c8.44 18.36 16.5 36.89 24.16 55.59 2.16 5.27 4.29 10.55 6.39 15.84.47 1.19 2.65 1.64 2.89 0 2.52-17.35 4.63-34.77 6.33-52.22.49-5.01.94-10.02 1.35-15.03.16-1.92-2.84-1.91-3 0-1.44 17.26-3.28 34.49-5.53 51.66-.65 4.94-1.33 9.87-2.05 14.8h2.89c-7.52-18.95-15.42-37.74-23.71-56.36-2.35-5.28-4.73-10.54-7.14-15.78-.81-1.75-3.39-.23-2.59 1.51zM291.7 265.43c-1.81-4.38-3.96-9.26-8.29-11.71-4.67-2.65-10.21-1.2-14.16 2.07-4.41 3.67-6.27 9.48-7.51 14.87-1.39 6.08-2.49 12.27-2.84 18.51-.35 6.2.12 12.52 1.96 18.47 1.45 4.69 4.06 9.62 8.88 11.5s9.6-.42 12.94-3.87c3.81-3.93 5.93-9.05 7.48-14.22 3.9-13.04 3.56-27.28-.95-40.11-.64-1.81-3.53-1.03-2.89.8 3.58 10.18 4.49 21.24 2.54 31.86-.91 4.94-2.26 10.09-4.68 14.52-2 3.67-5.19 7.78-9.55 8.58s-7.8-2.79-9.59-6.49c-2.25-4.68-3.04-10.17-3.21-15.31-.19-5.71.46-11.42 1.48-17.03.92-5.01 1.8-10.39 4.16-14.96s7.12-8.74 12.48-7.38c4.81 1.22 7.12 6.53 8.84 10.69.73 1.76 3.63.99 2.89-.8zM327.91 251.84c-9.77-.01-19.55-.03-29.32-.04-1.93 0-1.93 3 0 3 9.77.01 19.55.03 29.32.04 1.93 0 1.93-3 0-3zM312.58 256.78c-2.09 19.03-4.19 38.06-6.28 57.09l-1.8 16.38c-.21 1.92 2.79 1.9 3 0 2.09-19.03 4.19-38.06 6.28-57.09l1.8-16.38c.21-1.92-2.79-1.9-3 0zM399.24 259.57c-7.72-5.83-19.19-6.91-26.31.5-3.01 3.14-4.65 7.39-4.05 11.74.57 4.05 2.97 7.99 6.64 9.94 4.4 2.35 9.61.63 14.05 2.73 3.43 1.62 5.87 4.78 7.28 8.24 3.17 7.75 1.74 17.35-3.74 23.73-3.1 3.61-7.37 5.86-12.19 5.58-4.37-.26-8.53-2.59-10.32-6.68-.77-1.76-3.36-.24-2.59 1.51 3.37 7.71 13.54 9.99 20.75 6.69 8.22-3.77 12.82-13.54 12.77-22.27-.04-7.66-3.56-16.41-11-19.63-2.18-.94-4.46-1.23-6.82-1.32-2.51-.1-5.05-.12-7.25-1.49-3.41-2.12-5.27-6.58-4.6-10.51.84-4.96 5.13-8.81 9.86-10.07 5.61-1.5 11.5.51 16 3.91 1.54 1.16 3.04-1.44 1.51-2.59zM358.5 255.95a33.08 33.08 0 00-21.35 2.71c-1.73.85-.21 3.44 1.51 2.59a29.665 29.665 0 0119.04-2.41c1.88.39 2.69-2.5.8-2.89zM332.07 257.62c-1.36 17.57-2.1 35.19-2.19 52.81-.03 5.05 0 10.09.07 15.14.03 1.93 3.03 1.93 3 0a733.584 733.584 0 012.13-67.96c.15-1.93-2.85-1.92-3 0z"></path><path d="M332.13 326.54c8.15-1.39 16.3-2.79 24.44-4.18 1.9-.32 1.09-3.22-.8-2.89-8.15 1.39-16.3 2.79-24.44 4.18-1.9.32-1.09 3.22.8 2.89zM349.27 284.63l-17.69 2.93c-.8.13-1.25 1.12-1.05 1.85.23.85 1.04 1.18 1.85 1.05l17.69-2.93c.8-.13 1.25-1.12 1.05-1.85-.23-.85-1.04-1.18-1.85-1.05z"></path></g><path fill="#3681c7" d="M408.55 345.61c-27.32.4-54.65.81-81.97 1.21s-54.65.81-81.97 1.21c-15.33.23-30.66.45-45.99.68-1.93.03-1.93 2.95 0 3 22.72.63 45.43 1.26 68.14 2.21 22.61.95 45.21 2.22 67.76 4.14 12.75 1.08 25.49 2.38 38.2 3.93v-3a928.149 928.149 0 00-96.97-3.74c-1.31.02-1.97 1.62-1.06 2.56 2.96 3.06 7.12 4.13 11.18 4.87 5 .91 10.01 1.76 15.02 2.64l30.96 5.43.4-2.95c-8.07.51-16.13 1.03-24.2 1.54-2 .13-3.99.25-5.99.38-1.8.11-3.8 0-5.55.43-2.09.51-4.88 3.74-1.97 5.21 1.72.87 3.24-1.71 1.51-2.59l.22.91c.05-.07.12-.13.18-.19.1-.02.45-.31.53-.35.49-.22 1.06-.17 1.58-.2l4.74-.3c3.24-.21 6.49-.41 9.73-.62 6.4-.41 12.81-.82 19.21-1.22 1.58-.1 2.16-2.64.4-2.95-9.99-1.75-19.99-3.51-29.98-5.26-4.91-.86-9.83-1.72-14.74-2.59-3.91-.69-8.23-1.34-11.12-4.32l-1.06 2.56c25.26-.34 50.53.34 75.74 2.05 7.08.48 14.16 1.05 21.23 1.69 1.94.18 1.88-2.77 0-3-22.54-2.75-45.18-4.68-67.84-6.1s-45.22-2.33-67.84-3.06c-12.8-.41-25.6-.77-38.41-1.12v3c27.32-.4 54.65-.81 81.97-1.21 27.32-.4 54.65-.81 81.97-1.21 15.33-.23 30.66-.45 45.99-.68 1.93-.03 1.93-3.03 0-3zM320.65 204.23c-8.4 1.6-16.91 2.46-25.45 2.6-1.95.03-1.91 2.87 0 3 10.37.68 20.82 1.42 30.74 4.76l.4-2.95c-18.29 1.18-36.57 2.36-54.86 3.53-5.21.34-10.43.67-15.64 1.01-1.91.12-1.95 2.94 0 3 26.75.79 53.5 1.58 80.2 3.48 7.58.54 15.15 1.17 22.71 1.9v-3c-19.52.45-39.04.9-58.55 1.58-19.42.68-38.84 1.59-58.22 2.96-10.97.78-21.93 1.7-32.87 2.81-1.88.19-1.97 3.02 0 3 24.36-.2 48.73-.41 73.09-.61 24.28-.2 48.56-.41 72.84-.61 13.72-.11 27.44-.23 41.16-.34 1.42-.01 2.14-2.11.76-2.8a24.527 24.527 0 00-10.63-2.58c-1.93-.02-1.93 2.98 0 3 3.18.04 6.26.76 9.11 2.17l.76-2.8c-24.36.2-48.73.41-73.09.61-24.28.2-48.56.41-72.84.61-13.72.11-27.44.23-41.16.34v3c19.42-1.97 38.89-3.35 58.37-4.37 19.41-1.01 38.84-1.66 58.27-2.18 11-.29 22-.55 33-.8 1.96-.05 1.89-2.82 0-3-26.64-2.6-53.38-3.8-80.12-4.68-7.6-.25-15.19-.48-22.79-.7v3c18.29-1.18 36.57-2.36 54.86-3.53 5.21-.34 10.43-.67 15.64-1.01 1.69-.11 2.03-2.4.4-2.95-10.15-3.42-20.92-4.17-31.53-4.87v3c8.81-.15 17.59-1.06 26.25-2.71 1.89-.36 1.09-3.25-.8-2.89z"></path></svg>